<svg xmlns="http://www.w3.org/2000/svg" viewBox="0 0 512 512" width="512" height="512">
  
  <g transform="translate(71.68 14.349044585987258) scale(0.3913375796178344)">
    <path fill-rule="evenodd" fill="black" d="M 0.0 545.0 a 255.0 255.0 0 1 0 510.0 0 a 255.0 255.0 0 1 0 -510.0 0 M 88.0 545.0 a 167.0 167.0 0 1 0 334.0 0 a 167.0 167.0 0 1 0 -334.0 0 "/>
    <rect x="408.0" y="290" width="102" height="655" fill="black"/>
    <rect x="130.0" y="843" width="380" height="102" fill="black"/>
    <path fill="black" d="M 610.0 290 L 712.0 290 L 712.0 800 L 610.0 800 Z"/>
    <path fill="black" d="M 610.0 290 C 663.75 239, 760.5 269, 927.0 324 L 884.2580462103805 420 C 801.9806323472664 371, 692.2774138631141 391, 712.0 386 L 610.0 290 Z"/>
  </g>
</svg>