<svg xmlns="http://www.w3.org/2000/svg" viewBox="0 0 3857.0 1075" width="3857.0" height="1075">
  
  <g transform="translate(100 0)">
    <rect x="0" y="130" width="102" height="80" fill="#E8E6E1"/>
  <rect x="0" y="290" width="102" height="510" fill="#E8E6E1"/>
  <path fill-rule="evenodd" fill="#E8E6E1" d="M 152.0 545.0 a 255.0 255.0 0 1 0 510.0 0 a 255.0 255.0 0 1 0 -510.0 0 M 240.0 545.0 a 167.0 167.0 0 1 0 334.0 0 a 167.0 167.0 0 1 0 -334.0 0 "/>
  <rect x="560.0" y="290" width="102" height="510" fill="#E8E6E1"/>
  <rect x="737.0" y="290" width="758" height="510" fill="#E8E6E1"/>
  <path fill="none" d="M 839.0 395 A 105 105 0 0 1 944.0 290 L 960.0 290 A 105 105 0 0 1 1065.0 395 L 1065.0 805 L 839.0 805 Z"/>
  <path fill="none" d="M 1167.0 395 A 105 105 0 0 1 1272.0 290 L 1288.0 290 A 105 105 0 0 1 1393.0 395 L 1393.0 805 L 1167.0 805 Z"/>
  <path fill-rule="evenodd" fill="#E8E6E1" d="M 1570.0 545.0 a 255.0 255.0 0 1 0 510.0 0 a 255.0 255.0 0 1 0 -510.0 0 M 1658.0 545.0 a 167.0 167.0 0 1 0 334.0 0 a 167.0 167.0 0 1 0 -334.0 0 "/>
  <rect x="1978.0" y="290" width="102" height="655" fill="#E8E6E1"/>
  <rect x="1700.0" y="843" width="380" height="102" fill="#E8E6E1"/>
  <rect x="2155.0" y="290" width="102" height="255.0" fill="#E8E6E1"/>
  <rect x="2563.0" y="290" width="102" height="255.0" fill="#E8E6E1"/>
  <path fill="#E8E6E1" d="M 2155.0 545.0 A 255.0 255.0 0 0 0 2665.0 545.0 L 2563.0 545.0 A 153.0 153.0 0 0 1 2257.0 545.0 Z"/>
  <path fill-rule="evenodd" fill="#E8E6E1" d="M 2740.0 545.0 a 255.0 255.0 0 1 0 510.0 0 a 255.0 255.0 0 1 0 -510.0 0 M 2828.0 545.0 a 167.0 167.0 0 1 0 334.0 0 a 167.0 167.0 0 1 0 -334.0 0 "/>
  <rect x="2740.0" y="498.18" width="510.0" height="83.64" fill="#E8E6E1"/>
  <rect x="3157.0" y="581.82" width="118.0" height="216.17999999999995" fill="none"/>
  <path fill="#E8E6E1" d="M 3325.0 290 L 3427.0 290 L 3427.0 800 L 3325.0 800 Z"/>
  <path fill="#E8E6E1" d="M 3325.0 290 C 3378.75 239, 3475.5 269, 3642.0 324 L 3599.2580462103806 420 C 3516.9806323472662 371, 3407.2774138631144 391, 3427.0 386 L 3325.0 290 Z"/>
  </g>
</svg>